<svg xmlns="http://www.w3.org/2000/svg" width="80" height="80" viewBox="0 0 80 80">
  <path fill="rgb(190,147,86)" fill-rule="evenodd" d="M 18 2 L 14 4 L 8 10 L 6 14 L 6 23 L 7 25 L 15 32 L 13 36 L 13 40 L 16 48 L 19 51 L 22 52 L 21 52 L 16 47 L 15 45 L 15 41 L 16 40 L 19 47 L 22 50 L 26 52 L 33 52 L 34 53 L 34 56 L 31 63 L 28 67 L 24 70 L 26 70 L 27 69 L 37 70 L 38 71 L 43 72 L 52 77 L 50 75 L 47 67 L 48 60 L 51 56 L 53 56 L 61 60 L 65 60 L 65 56 L 68 54 L 67 52 L 69 51 L 68 49 L 72 46 L 72 45 L 68 41 L 68 39 L 72 35 L 69 37 L 68 36 L 68 34 L 69 33 L 68 18 L 69 17 L 73 23 L 73 29 L 72 30 L 74 25 L 73 19 L 68 13 L 65 12 L 56 6 L 53 6 L 52 5 L 45 5 L 44 6 L 38 7 L 36 9 L 30 2 L 28 2 L 27 1 Z M 37 47 L 35 49 L 30 51 L 26 49 L 27 48 L 32 48 L 35 46 Z M 41 44 L 42 43 L 47 49 L 45 50 L 42 47 Z M 45 41 L 47 42 L 47 45 L 46 46 L 44 43 Z M 23 33 L 24 32 L 29 38 L 33 40 L 38 40 L 39 41 L 37 43 L 30 42 L 25 38 L 23 35 Z M 17 33 L 18 32 L 20 34 L 20 36 L 22 40 L 25 43 L 32 46 L 31 47 L 26 47 L 25 46 L 23 46 L 19 42 L 17 38 Z M 59 21 L 56 26 L 52 30 L 42 36 L 32 36 L 27 32 L 28 31 L 33 32 L 34 33 L 43 32 L 50 28 L 58 20 Z M 23 22 L 26 20 L 27 21 L 26 23 L 24 23 Z M 64 17 L 65 18 L 65 21 L 62 29 L 57 34 L 54 35 L 53 34 L 56 32 L 59 28 Z M 60 17 L 61 19 L 59 21 L 58 19 Z M 52 18 L 46 26 L 39 30 L 31 30 L 29 28 L 30 27 L 37 27 L 38 26 L 40 26 L 45 23 L 51 17 Z M 37 19 L 39 17 L 41 18 L 39 20 Z M 43 14 L 44 16 L 41 18 L 40 17 Z M 35 15 L 33 22 L 26 28 L 16 28 L 12 26 L 8 21 L 8 17 L 10 16 L 12 21 L 16 25 L 23 26 L 24 25 L 26 25 L 31 20 L 32 16 L 34 14 Z M 22 9 L 25 11 L 24 12 L 20 12 L 18 15 L 18 17 L 21 21 L 20 22 L 16 19 L 14 20 L 13 19 L 13 16 L 15 12 L 19 9 Z M 38 9 L 41 7 L 51 6 L 52 7 L 57 8 L 60 12 L 59 13 L 56 11 L 54 11 L 53 10 L 48 10 L 47 9 L 44 9 L 43 10 L 39 10 Z M 24 8 L 23 9 L 21 8 L 17 8 L 16 9 L 14 9 L 12 11 L 10 10 L 15 5 L 17 5 L 18 4 L 20 5 L 19 6 L 22 6 Z M 26 3 L 27 3 L 32 9 L 32 11 L 30 14 L 29 13 L 29 9 L 25 4 Z"/>
</svg>
